<mxfile host="65bd71144e">
    <diagram id="a_lwmjhS-t0o144CuFog" name="Page-1">
        <mxGraphModel dx="962" dy="551" grid="0" gridSize="10" guides="1" tooltips="1" connect="1" arrows="1" fold="1" page="0" pageScale="1" pageWidth="827" pageHeight="1169" background="#ffffff" math="0" shadow="0">
            <root>
                <mxCell id="0"/>
                <mxCell id="1" parent="0"/>
                <mxCell id="8" style="edgeStyle=elbowEdgeStyle;rounded=0;html=1;exitX=0.003;exitY=0.435;exitDx=0;exitDy=0;entryX=0.104;entryY=1;entryDx=0;entryDy=0;fontSize=13;fontColor=#000000;strokeColor=#000000;exitPerimeter=0;entryPerimeter=0;fontFamily=Times New Roman;" parent="1" target="3" edge="1">
                    <mxGeometry relative="1" as="geometry">
                        <mxPoint x="329.51" y="283.95000000000005" as="sourcePoint"/>
                        <mxPoint x="89.75999999999999" y="109.89999999999998" as="targetPoint"/>
                        <Array as="points">
                            <mxPoint x="90" y="210"/>
                        </Array>
                    </mxGeometry>
                </mxCell>
                <mxCell id="12" style="edgeStyle=elbowEdgeStyle;rounded=0;html=1;exitX=0.025;exitY=0.342;exitDx=0;exitDy=0;entryX=0.208;entryY=1;entryDx=0;entryDy=0;fontSize=13;fontColor=#000000;strokeColor=#000000;exitPerimeter=0;entryPerimeter=0;fontFamily=Times New Roman;" parent="1" source="2" target="3" edge="1">
                    <mxGeometry relative="1" as="geometry">
                        <mxPoint x="337.84000000000003" y="258.09000000000003" as="sourcePoint"/>
                        <mxPoint x="109.51999999999998" y="111.45000000000005" as="targetPoint"/>
                        <Array as="points">
                            <mxPoint x="110" y="191"/>
                        </Array>
                    </mxGeometry>
                </mxCell>
                <mxCell id="17" style="edgeStyle=elbowEdgeStyle;rounded=0;html=1;exitX=0.102;exitY=0.199;exitDx=0;exitDy=0;fontSize=13;fontColor=#000000;strokeColor=#000000;exitPerimeter=0;fontFamily=Times New Roman;" parent="1" source="2" edge="1">
                    <mxGeometry relative="1" as="geometry">
                        <mxPoint x="358.40999999999997" y="233.74" as="sourcePoint"/>
                        <mxPoint x="132" y="100" as="targetPoint"/>
                        <Array as="points">
                            <mxPoint x="132" y="169"/>
                        </Array>
                    </mxGeometry>
                </mxCell>
                <mxCell id="20" style="edgeStyle=elbowEdgeStyle;rounded=0;html=1;exitX=0.478;exitY=0.002;exitDx=0;exitDy=0;entryX=1;entryY=0.5;entryDx=0;entryDy=0;fontSize=13;fontColor=#000000;strokeColor=#000000;exitPerimeter=0;fontFamily=Times New Roman;" parent="1" source="2" edge="1">
                    <mxGeometry relative="1" as="geometry">
                        <mxPoint x="414" y="192" as="sourcePoint"/>
                        <mxPoint x="260" y="67" as="targetPoint"/>
                        <Array as="points">
                            <mxPoint x="410" y="132"/>
                        </Array>
                    </mxGeometry>
                </mxCell>
                <mxCell id="24" style="edgeStyle=elbowEdgeStyle;rounded=0;html=1;exitX=0.342;exitY=0.026;exitDx=0;exitDy=0;fontSize=13;fontColor=#000000;strokeColor=#000000;exitPerimeter=0;entryX=1.003;entryY=0.756;entryDx=0;entryDy=0;entryPerimeter=0;fontFamily=Times New Roman;" parent="1" target="3" edge="1">
                    <mxGeometry relative="1" as="geometry">
                        <mxPoint x="392.14" y="202.42000000000002" as="sourcePoint"/>
                        <mxPoint x="265" y="88" as="targetPoint"/>
                        <Array as="points">
                            <mxPoint x="392" y="154"/>
                        </Array>
                    </mxGeometry>
                </mxCell>
                <mxCell id="28" style="edgeStyle=elbowEdgeStyle;rounded=0;html=1;exitX=0.282;exitY=0.05;exitDx=0;exitDy=0;entryX=0.421;entryY=1.008;entryDx=0;entryDy=0;entryPerimeter=0;fontSize=13;fontColor=#000000;strokeColor=#000000;exitPerimeter=0;fontFamily=Times New Roman;" parent="1" source="2" target="3" edge="1">
                    <mxGeometry relative="1" as="geometry">
                        <mxPoint x="386.9699999999999" y="208.57" as="sourcePoint"/>
                        <mxPoint x="149.41999999999996" y="105.29999999999995" as="targetPoint"/>
                        <Array as="points">
                            <mxPoint x="150" y="155"/>
                        </Array>
                    </mxGeometry>
                </mxCell>
                <mxCell id="32" style="edgeStyle=elbowEdgeStyle;rounded=0;elbow=vertical;html=1;exitX=0.288;exitY=0.047;exitDx=0;exitDy=0;fontSize=13;fontColor=#000000;strokeColor=#000000;exitPerimeter=0;fontFamily=Times New Roman;" parent="1" source="2" edge="1">
                    <mxGeometry relative="1" as="geometry">
                        <mxPoint x="171" y="100" as="targetPoint"/>
                        <mxPoint x="387.26" y="199.01" as="sourcePoint"/>
                        <Array as="points">
                            <mxPoint x="280" y="130"/>
                        </Array>
                    </mxGeometry>
                </mxCell>
                <mxCell id="38" style="edgeStyle=elbowEdgeStyle;rounded=0;elbow=vertical;html=1;exitX=0.645;exitY=0.024;exitDx=0;exitDy=0;fontSize=13;fontColor=#000000;strokeColor=#000000;exitPerimeter=0;entryX=0;entryY=0.336;entryDx=0;entryDy=0;entryPerimeter=0;fontFamily=Times New Roman;" parent="1" source="2" target="4" edge="1">
                    <mxGeometry relative="1" as="geometry">
                        <mxPoint x="438.8499999999999" y="206.14000000000004" as="sourcePoint"/>
                        <mxPoint x="620" y="64.79999999999995" as="targetPoint"/>
                        <Array as="points">
                            <mxPoint x="529" y="65"/>
                        </Array>
                    </mxGeometry>
                </mxCell>
                <mxCell id="42" style="edgeStyle=elbowEdgeStyle;rounded=0;elbow=vertical;html=1;exitX=0.768;exitY=0.078;exitDx=0;exitDy=0;entryX=0;entryY=0.75;entryDx=0;entryDy=0;fontSize=13;fontColor=#000000;strokeColor=#000000;exitPerimeter=0;fontFamily=Times New Roman;" parent="1" source="2" target="4" edge="1">
                    <mxGeometry relative="1" as="geometry">
                        <mxPoint x="459.79999999999995" y="221.95000000000005" as="sourcePoint"/>
                        <mxPoint x="617.4300000000001" y="85.95000000000005" as="targetPoint"/>
                        <Array as="points">
                            <mxPoint x="460" y="86"/>
                            <mxPoint x="536" y="86"/>
                        </Array>
                    </mxGeometry>
                </mxCell>
                <mxCell id="46" style="edgeStyle=elbowEdgeStyle;rounded=0;elbow=vertical;html=1;entryX=0.897;entryY=1.008;entryDx=0;entryDy=0;entryPerimeter=0;fontSize=13;fontColor=#000000;strokeColor=#000000;exitX=0.997;exitY=0.476;exitDx=0;exitDy=0;exitPerimeter=0;fontFamily=Times New Roman;" parent="1" target="4" edge="1">
                    <mxGeometry relative="1" as="geometry">
                        <mxPoint x="498.49" y="285.91999999999996" as="sourcePoint"/>
                        <mxPoint x="800.6100000000001" y="103.39999999999998" as="targetPoint"/>
                        <Array as="points">
                            <mxPoint x="676" y="286"/>
                        </Array>
                    </mxGeometry>
                </mxCell>
                <mxCell id="50" style="edgeStyle=elbowEdgeStyle;rounded=0;elbow=vertical;html=1;exitX=0.978;exitY=0.353;exitDx=0;exitDy=0;entryX=0.75;entryY=1;entryDx=0;entryDy=0;fontSize=13;fontColor=#000000;strokeColor=#000000;exitPerimeter=0;fontFamily=Times New Roman;" parent="1" source="2" target="4" edge="1">
                    <mxGeometry relative="1" as="geometry">
                        <Array as="points">
                            <mxPoint x="640" y="260"/>
                        </Array>
                    </mxGeometry>
                </mxCell>
                <mxCell id="54" style="edgeStyle=elbowEdgeStyle;rounded=0;elbow=vertical;html=1;exitX=0.928;exitY=0.235;exitDx=0;exitDy=0;entryX=0.635;entryY=1.015;entryDx=0;entryDy=0;entryPerimeter=0;fontSize=13;fontColor=#000000;strokeColor=#000000;exitPerimeter=0;fontFamily=Times New Roman;" parent="1" source="2" target="4" edge="1">
                    <mxGeometry relative="1" as="geometry">
                        <Array as="points">
                            <mxPoint x="630" y="240"/>
                        </Array>
                    </mxGeometry>
                </mxCell>
                <mxCell id="59" style="edgeStyle=elbowEdgeStyle;rounded=0;elbow=vertical;html=1;exitX=0.823;exitY=0.118;exitDx=0;exitDy=0;fontSize=13;fontColor=#000000;strokeColor=#000000;exitPerimeter=0;fontFamily=Times New Roman;" parent="1" source="2" edge="1">
                    <mxGeometry relative="1" as="geometry">
                        <mxPoint x="730" y="100" as="targetPoint"/>
                        <Array as="points">
                            <mxPoint x="610" y="220"/>
                        </Array>
                    </mxGeometry>
                </mxCell>
                <mxCell id="62" style="edgeStyle=elbowEdgeStyle;rounded=0;elbow=vertical;html=1;exitX=0.799;exitY=0.099;exitDx=0;exitDy=0;entryX=0.25;entryY=1;entryDx=0;entryDy=0;fontSize=13;fontColor=#000000;strokeColor=#000000;exitPerimeter=0;fontFamily=Times New Roman;" parent="1" edge="1">
                    <mxGeometry relative="1" as="geometry">
                        <mxPoint x="464.8299999999999" y="216.83000000000004" as="sourcePoint"/>
                        <mxPoint x="677.5" y="98" as="targetPoint"/>
                        <Array as="points">
                            <mxPoint x="670" y="157"/>
                        </Array>
                    </mxGeometry>
                </mxCell>
                <mxCell id="68" style="edgeStyle=elbowEdgeStyle;rounded=0;elbow=vertical;html=1;exitX=0.5;exitY=1;exitDx=0;exitDy=0;fontSize=13;fontColor=#000000;strokeColor=#000000;fontFamily=Times New Roman;" parent="1" edge="1">
                    <mxGeometry relative="1" as="geometry">
                        <mxPoint x="425" y="370" as="sourcePoint"/>
                        <mxPoint x="425" y="550" as="targetPoint"/>
                    </mxGeometry>
                </mxCell>
                <mxCell id="75" style="edgeStyle=elbowEdgeStyle;rounded=0;html=1;exitX=0.223;exitY=0.916;exitDx=0;exitDy=0;entryX=0;entryY=0.25;entryDx=0;entryDy=0;fontSize=13;fontColor=#000000;strokeColor=#000000;exitPerimeter=0;fontFamily=Times New Roman;" parent="1" source="2" target="5" edge="1">
                    <mxGeometry relative="1" as="geometry">
                        <Array as="points">
                            <mxPoint x="100" y="450"/>
                        </Array>
                    </mxGeometry>
                </mxCell>
                <mxCell id="79" style="edgeStyle=elbowEdgeStyle;html=1;exitX=1;exitY=1;exitDx=0;exitDy=0;entryX=1;entryY=0.75;entryDx=0;entryDy=0;strokeColor=#000000;rounded=0;fontFamily=Times New Roman;fontSize=13;" parent="1" source="2" target="5" edge="1">
                    <mxGeometry relative="1" as="geometry">
                        <Array as="points">
                            <mxPoint x="810" y="280"/>
                        </Array>
                    </mxGeometry>
                </mxCell>
                <mxCell id="2" value="&lt;b style=&quot;font-size: 13px;&quot;&gt;&lt;font style=&quot;font-size: 13px;&quot; color=&quot;#000000&quot;&gt;Phoenix Computers&lt;/font&gt;&lt;/b&gt;" style="shape=ellipse;html=1;dashed=0;whitespace=wrap;aspect=fixed;strokeWidth=1;perimeter=ellipsePerimeter;strokeColor=#000000;fillColor=none;fontFamily=Times New Roman;fontSize=13;" parent="1" vertex="1">
                    <mxGeometry x="329" y="200" width="170" height="170" as="geometry"/>
                </mxCell>
                <mxCell id="7" style="edgeStyle=elbowEdgeStyle;html=1;exitX=0.042;exitY=1.002;exitDx=0;exitDy=0;entryX=0;entryY=0.5;entryDx=0;entryDy=0;fontSize=13;fontColor=#000000;rounded=0;strokeColor=#000000;exitPerimeter=0;fontFamily=Times New Roman;" parent="1" source="3" edge="1">
                    <mxGeometry relative="1" as="geometry">
                        <mxPoint x="77.5" y="110" as="sourcePoint"/>
                        <mxPoint x="329.00000000000034" y="295" as="targetPoint"/>
                        <Array as="points">
                            <mxPoint x="78" y="200"/>
                        </Array>
                    </mxGeometry>
                </mxCell>
                <mxCell id="11" style="edgeStyle=elbowEdgeStyle;rounded=0;html=1;exitX=0.158;exitY=1;exitDx=0;exitDy=0;fontSize=13;fontColor=#000000;strokeColor=#000000;exitPerimeter=0;fontFamily=Times New Roman;" parent="1" source="3" edge="1">
                    <mxGeometry relative="1" as="geometry">
                        <mxPoint x="117.5" y="111" as="sourcePoint"/>
                        <mxPoint x="330" y="271" as="targetPoint"/>
                        <Array as="points">
                            <mxPoint x="100" y="221"/>
                        </Array>
                    </mxGeometry>
                </mxCell>
                <mxCell id="15" style="edgeStyle=elbowEdgeStyle;rounded=0;html=1;fontSize=13;fontColor=#000000;strokeColor=#000000;fontFamily=Times New Roman;" parent="1" edge="1">
                    <mxGeometry relative="1" as="geometry">
                        <mxPoint x="120" y="100" as="sourcePoint"/>
                        <mxPoint x="340" y="245" as="targetPoint"/>
                        <Array as="points">
                            <mxPoint x="120" y="183"/>
                        </Array>
                    </mxGeometry>
                </mxCell>
                <mxCell id="19" style="edgeStyle=elbowEdgeStyle;rounded=0;html=1;exitX=1;exitY=0.25;exitDx=0;exitDy=0;entryX=0.536;entryY=-0.004;entryDx=0;entryDy=0;entryPerimeter=0;fontSize=13;fontColor=#000000;strokeColor=#000000;fontFamily=Times New Roman;" parent="1" target="2" edge="1">
                    <mxGeometry relative="1" as="geometry">
                        <mxPoint x="260" y="54.5" as="sourcePoint"/>
                        <mxPoint x="421.1400000000001" y="191.65999999999997" as="targetPoint"/>
                        <Array as="points">
                            <mxPoint x="420" y="130"/>
                        </Array>
                    </mxGeometry>
                </mxCell>
                <mxCell id="23" style="edgeStyle=elbowEdgeStyle;rounded=0;html=1;exitX=1.002;exitY=0.547;exitDx=0;exitDy=0;entryX=0.435;entryY=0;entryDx=0;entryDy=0;entryPerimeter=0;fontSize=13;fontColor=#000000;strokeColor=#000000;exitPerimeter=0;fontFamily=Times New Roman;" parent="1" edge="1">
                    <mxGeometry relative="1" as="geometry">
                        <mxPoint x="259.38000000000005" y="77.35000000000002" as="sourcePoint"/>
                        <mxPoint x="401.95000000000005" y="200" as="targetPoint"/>
                        <Array as="points">
                            <mxPoint x="402" y="140"/>
                        </Array>
                    </mxGeometry>
                </mxCell>
                <mxCell id="27" style="edgeStyle=elbowEdgeStyle;rounded=0;html=1;fontSize=13;fontColor=#000000;strokeColor=#000000;fontFamily=Times New Roman;" parent="1" edge="1">
                    <mxGeometry relative="1" as="geometry">
                        <mxPoint x="140" y="100" as="sourcePoint"/>
                        <mxPoint x="360" y="220" as="targetPoint"/>
                        <Array as="points">
                            <mxPoint x="140" y="160"/>
                        </Array>
                    </mxGeometry>
                </mxCell>
                <mxCell id="31" style="edgeStyle=elbowEdgeStyle;rounded=0;elbow=vertical;html=1;exitX=0.593;exitY=1.001;exitDx=0;exitDy=0;entryX=0.311;entryY=0.04;entryDx=0;entryDy=0;entryPerimeter=0;fontSize=13;fontColor=#000000;strokeColor=#000000;exitPerimeter=0;fontFamily=Times New Roman;" parent="1" source="3" edge="1">
                    <mxGeometry relative="1" as="geometry">
                        <mxPoint x="167" y="100" as="sourcePoint"/>
                        <mxPoint x="383.8699999999999" y="206.79999999999995" as="targetPoint"/>
                        <Array as="points">
                            <mxPoint x="282" y="120"/>
                        </Array>
                    </mxGeometry>
                </mxCell>
                <mxCell id="3" value="&lt;b style=&quot;font-size: 13px;&quot;&gt;&lt;font style=&quot;font-size: 13px;&quot;&gt;ADMIN&lt;/font&gt;&lt;/b&gt;" style="html=1;dashed=0;whitespace=wrap;labelBackgroundColor=none;fontSize=13;fontColor=#000000;strokeColor=#000000;strokeWidth=1;fillColor=none;fontFamily=Times New Roman;" parent="1" vertex="1">
                    <mxGeometry x="70" y="50" width="190" height="50" as="geometry"/>
                </mxCell>
                <mxCell id="37" style="edgeStyle=elbowEdgeStyle;rounded=0;elbow=vertical;html=1;exitX=0;exitY=0.14;exitDx=0;exitDy=0;fontSize=13;fontColor=#000000;strokeColor=#000000;entryX=0.593;entryY=0.008;entryDx=0;entryDy=0;entryPerimeter=0;exitPerimeter=0;fontFamily=Times New Roman;" parent="1" source="4" target="2" edge="1">
                    <mxGeometry relative="1" as="geometry">
                        <mxPoint x="622" y="68" as="sourcePoint"/>
                        <mxPoint x="430" y="200" as="targetPoint"/>
                        <Array as="points">
                            <mxPoint x="402" y="55"/>
                        </Array>
                    </mxGeometry>
                </mxCell>
                <mxCell id="41" style="edgeStyle=elbowEdgeStyle;rounded=0;elbow=vertical;html=1;exitX=0;exitY=0.52;exitDx=0;exitDy=0;fontSize=13;fontColor=#000000;strokeColor=#000000;entryX=0.703;entryY=0.042;entryDx=0;entryDy=0;entryPerimeter=0;exitPerimeter=0;fontFamily=Times New Roman;" parent="1" source="4" target="2" edge="1">
                    <mxGeometry relative="1" as="geometry">
                        <mxPoint x="619" y="67" as="sourcePoint"/>
                        <mxPoint x="449" y="200" as="targetPoint"/>
                        <Array as="points">
                            <mxPoint x="539" y="74"/>
                        </Array>
                    </mxGeometry>
                </mxCell>
                <mxCell id="45" style="edgeStyle=elbowEdgeStyle;rounded=0;elbow=vertical;html=1;exitX=1;exitY=1;exitDx=0;exitDy=0;entryX=1.026;entryY=0.579;entryDx=0;entryDy=0;entryPerimeter=0;fontSize=13;fontColor=#000000;strokeColor=#000000;fontFamily=Times New Roman;" parent="1" edge="1">
                    <mxGeometry relative="1" as="geometry">
                        <mxPoint x="814" y="98" as="sourcePoint"/>
                        <mxPoint x="497.4200000000001" y="298.42999999999995" as="targetPoint"/>
                        <Array as="points">
                            <mxPoint x="664" y="298"/>
                        </Array>
                    </mxGeometry>
                </mxCell>
                <mxCell id="49" style="edgeStyle=elbowEdgeStyle;rounded=0;elbow=vertical;html=1;exitX=0.828;exitY=1.007;exitDx=0;exitDy=0;entryX=0.999;entryY=0.428;entryDx=0;entryDy=0;entryPerimeter=0;fontSize=13;fontColor=#000000;strokeColor=#000000;exitPerimeter=0;fontFamily=Times New Roman;" parent="1" source="4" edge="1">
                    <mxGeometry relative="1" as="geometry">
                        <mxPoint x="787.5" y="101" as="sourcePoint"/>
                        <mxPoint x="497.8299999999999" y="273.76" as="targetPoint"/>
                        <Array as="points">
                            <mxPoint x="645" y="273"/>
                        </Array>
                    </mxGeometry>
                </mxCell>
                <mxCell id="53" style="edgeStyle=elbowEdgeStyle;rounded=0;elbow=vertical;html=1;exitX=0.5;exitY=1;exitDx=0;exitDy=0;fontSize=13;fontColor=#000000;strokeColor=#000000;fontFamily=Times New Roman;" parent="1" target="2" edge="1">
                    <mxGeometry relative="1" as="geometry">
                        <mxPoint x="762" y="98" as="sourcePoint"/>
                        <mxPoint x="530.39" y="253.21000000000004" as="targetPoint"/>
                        <Array as="points">
                            <mxPoint x="637" y="250"/>
                        </Array>
                    </mxGeometry>
                </mxCell>
                <mxCell id="58" style="edgeStyle=elbowEdgeStyle;rounded=0;elbow=vertical;html=1;exitX=0.5;exitY=1;exitDx=0;exitDy=0;fontSize=13;fontColor=#000000;strokeColor=#000000;fontFamily=Times New Roman;" parent="1" target="2" edge="1">
                    <mxGeometry relative="1" as="geometry">
                        <mxPoint x="738" y="97" as="sourcePoint"/>
                        <mxPoint x="498.74" y="232.65999999999997" as="targetPoint"/>
                        <Array as="points">
                            <mxPoint x="738" y="229"/>
                            <mxPoint x="613" y="229"/>
                        </Array>
                    </mxGeometry>
                </mxCell>
                <mxCell id="64" style="edgeStyle=elbowEdgeStyle;rounded=0;elbow=vertical;html=1;exitX=0.25;exitY=1;exitDx=0;exitDy=0;fontSize=13;fontColor=#000000;strokeColor=#000000;entryX=0.83;entryY=0.123;entryDx=0;entryDy=0;entryPerimeter=0;fontFamily=Times New Roman;" parent="1" edge="1">
                    <mxGeometry relative="1" as="geometry">
                        <mxPoint x="471.0999999999999" y="218.90999999999997" as="targetPoint"/>
                        <mxPoint x="686.5" y="95" as="sourcePoint"/>
                        <Array as="points">
                            <mxPoint x="589" y="167"/>
                        </Array>
                    </mxGeometry>
                </mxCell>
                <mxCell id="4" value="&lt;b style=&quot;font-size: 13px;&quot;&gt;&lt;font style=&quot;font-size: 13px;&quot;&gt;CUSTOMER&lt;/font&gt;&lt;/b&gt;" style="html=1;dashed=0;whitespace=wrap;labelBackgroundColor=none;fontSize=13;fontColor=#000000;strokeColor=#000000;strokeWidth=1;fillColor=none;fontFamily=Times New Roman;" parent="1" vertex="1">
                    <mxGeometry x="630" y="48" width="190" height="50" as="geometry"/>
                </mxCell>
                <mxCell id="67" style="edgeStyle=elbowEdgeStyle;rounded=0;elbow=vertical;html=1;exitX=0.5;exitY=0;exitDx=0;exitDy=0;entryX=0.5;entryY=1;entryDx=0;entryDy=0;fontSize=13;fontColor=#000000;strokeColor=#000000;fontFamily=Times New Roman;" parent="1" edge="1">
                    <mxGeometry relative="1" as="geometry">
                        <mxPoint x="404" y="550" as="sourcePoint"/>
                        <mxPoint x="404" y="370" as="targetPoint"/>
                    </mxGeometry>
                </mxCell>
                <mxCell id="74" style="edgeStyle=elbowEdgeStyle;rounded=0;html=1;exitX=0;exitY=0.5;exitDx=0;exitDy=0;fontSize=13;fontColor=#000000;strokeColor=#000000;entryX=0;entryY=1;entryDx=0;entryDy=0;fontFamily=Times New Roman;" parent="1" source="5" target="2" edge="1">
                    <mxGeometry relative="1" as="geometry">
                        <mxPoint x="325" y="575" as="sourcePoint"/>
                        <mxPoint x="350" y="345" as="targetPoint"/>
                        <Array as="points">
                            <mxPoint x="86" y="470"/>
                        </Array>
                    </mxGeometry>
                </mxCell>
                <mxCell id="81" style="edgeStyle=elbowEdgeStyle;rounded=0;html=1;exitX=1;exitY=0.5;exitDx=0;exitDy=0;strokeColor=#000000;entryX=0.775;entryY=0.921;entryDx=0;entryDy=0;entryPerimeter=0;fontFamily=Times New Roman;fontSize=13;" parent="1" source="5" target="2" edge="1">
                    <mxGeometry relative="1" as="geometry">
                        <mxPoint x="466" y="357" as="targetPoint"/>
                        <Array as="points">
                            <mxPoint x="790" y="450"/>
                        </Array>
                    </mxGeometry>
                </mxCell>
                <mxCell id="5" value="&lt;b style=&quot;font-size: 13px;&quot;&gt;&lt;font style=&quot;font-size: 13px;&quot;&gt;Supplier&lt;/font&gt;&lt;/b&gt;" style="html=1;dashed=0;whitespace=wrap;labelBackgroundColor=none;fontSize=13;fontColor=#000000;strokeColor=#000000;strokeWidth=1;fillColor=none;fontFamily=Times New Roman;" parent="1" vertex="1">
                    <mxGeometry x="319" y="550" width="190" height="50" as="geometry"/>
                </mxCell>
                <mxCell id="9" value="&lt;font style=&quot;font-size: 13px;&quot;&gt;Request for Login&lt;/font&gt;" style="text;html=1;align=center;verticalAlign=middle;resizable=0;points=[];autosize=1;strokeColor=none;fillColor=none;fontSize=13;fontColor=#000000;fontStyle=1;fontFamily=Times New Roman;" parent="1" vertex="1">
                    <mxGeometry x="147" y="281" width="110" height="20" as="geometry"/>
                </mxCell>
                <mxCell id="10" value="Acknowledgement" style="text;html=1;align=center;verticalAlign=middle;resizable=0;points=[];autosize=1;strokeColor=none;fillColor=none;fontSize=13;fontColor=#000000;fontStyle=1;fontFamily=Times New Roman;" parent="1" vertex="1">
                    <mxGeometry x="146" y="270" width="113" height="20" as="geometry"/>
                </mxCell>
                <mxCell id="13" value="Manage Category" style="text;html=1;align=center;verticalAlign=middle;resizable=0;points=[];autosize=1;strokeColor=none;fillColor=none;fontSize=13;fontColor=#000000;fontStyle=1;fontFamily=Times New Roman;" parent="1" vertex="1">
                    <mxGeometry x="146" y="256" width="109" height="20" as="geometry"/>
                </mxCell>
                <mxCell id="14" value="Acknowledgement" style="text;html=1;align=center;verticalAlign=middle;resizable=0;points=[];autosize=1;strokeColor=none;fillColor=none;fontSize=13;fontColor=#000000;fontStyle=1;fontFamily=Times New Roman;" parent="1" vertex="1">
                    <mxGeometry x="145" y="243" width="113" height="20" as="geometry"/>
                </mxCell>
                <mxCell id="16" value="&lt;b style=&quot;font-size: 13px;&quot;&gt;Manage Product&lt;/b&gt;" style="text;html=1;align=center;verticalAlign=middle;resizable=0;points=[];autosize=1;strokeColor=none;fillColor=none;fontSize=13;fontColor=#000000;fontFamily=Times New Roman;" parent="1" vertex="1">
                    <mxGeometry x="150" y="231" width="103" height="20" as="geometry"/>
                </mxCell>
                <mxCell id="18" value="Acknowledgement" style="text;html=1;align=center;verticalAlign=middle;resizable=0;points=[];autosize=1;strokeColor=none;fillColor=none;fontSize=13;fontColor=#000000;fontStyle=1;fontFamily=Times New Roman;" parent="1" vertex="1">
                    <mxGeometry x="147" y="218" width="113" height="20" as="geometry"/>
                </mxCell>
                <mxCell id="21" value="Manage Order" style="text;html=1;align=center;verticalAlign=middle;resizable=0;points=[];autosize=1;strokeColor=none;fillColor=none;fontSize=13;fontColor=#000000;fontStyle=1;fontFamily=Times New Roman;" parent="1" vertex="1">
                    <mxGeometry x="278" y="40" width="93" height="20" as="geometry"/>
                </mxCell>
                <mxCell id="22" value="Acknowledgement" style="text;html=1;align=center;verticalAlign=middle;resizable=0;points=[];autosize=1;strokeColor=none;fillColor=none;fontSize=13;fontColor=#000000;fontStyle=1;fontFamily=Times New Roman;" parent="1" vertex="1">
                    <mxGeometry x="269" y="54" width="113" height="20" as="geometry"/>
                </mxCell>
                <mxCell id="25" value="&lt;b style=&quot;font-size: 13px;&quot;&gt;View Payment&lt;/b&gt;" style="text;html=1;align=center;verticalAlign=middle;resizable=0;points=[];autosize=1;strokeColor=none;fillColor=none;fontSize=13;fontColor=#000000;fontFamily=Times New Roman;" parent="1" vertex="1">
                    <mxGeometry x="278" y="65" width="90" height="20" as="geometry"/>
                </mxCell>
                <mxCell id="26" value="Acknowledgement" style="text;html=1;align=center;verticalAlign=middle;resizable=0;points=[];autosize=1;strokeColor=none;fillColor=none;fontSize=13;fontColor=#000000;fontStyle=1;fontFamily=Times New Roman;" parent="1" vertex="1">
                    <mxGeometry x="269" y="75" width="113" height="20" as="geometry"/>
                </mxCell>
                <mxCell id="29" value="&lt;b style=&quot;font-size: 13px;&quot;&gt;Manage Shipping&lt;/b&gt;" style="text;html=1;align=center;verticalAlign=middle;resizable=0;points=[];autosize=1;strokeColor=none;fillColor=none;fontSize=13;fontColor=#000000;fontFamily=Times New Roman;" parent="1" vertex="1">
                    <mxGeometry x="153" y="207" width="108" height="20" as="geometry"/>
                </mxCell>
                <mxCell id="30" value="&lt;b style=&quot;font-size: 13px;&quot;&gt;Acknowledgement&lt;/b&gt;" style="text;html=1;align=center;verticalAlign=middle;resizable=0;points=[];autosize=1;strokeColor=none;fillColor=none;fontSize=13;fontColor=#000000;fontFamily=Times New Roman;" parent="1" vertex="1">
                    <mxGeometry x="153" y="195" width="113" height="20" as="geometry"/>
                </mxCell>
                <mxCell id="33" value="&lt;b style=&quot;font-size: 13px;&quot;&gt;Manage Supplies&lt;/b&gt;" style="text;html=1;align=center;verticalAlign=middle;resizable=0;points=[];autosize=1;strokeColor=none;fillColor=none;fontSize=13;fontColor=#000000;fontFamily=Times New Roman;" parent="1" vertex="1">
                    <mxGeometry x="212" y="105" width="105" height="20" as="geometry"/>
                </mxCell>
                <mxCell id="35" value="&lt;b style=&quot;font-size: 13px;&quot;&gt;Acknowledgement&lt;/b&gt;" style="text;html=1;align=center;verticalAlign=middle;resizable=0;points=[];autosize=1;strokeColor=none;fillColor=none;fontSize=13;fontColor=#000000;fontFamily=Times New Roman;" parent="1" vertex="1">
                    <mxGeometry x="208" y="116" width="113" height="20" as="geometry"/>
                </mxCell>
                <mxCell id="39" value="Request for Registration" style="text;html=1;align=center;verticalAlign=middle;resizable=0;points=[];autosize=1;strokeColor=none;fillColor=none;fontSize=13;fontColor=#000000;fontStyle=1;fontFamily=Times New Roman;" parent="1" vertex="1">
                    <mxGeometry x="464" y="40" width="146" height="20" as="geometry"/>
                </mxCell>
                <mxCell id="40" value="Acknowledgement" style="text;html=1;align=center;verticalAlign=middle;resizable=0;points=[];autosize=1;strokeColor=none;fillColor=none;fontSize=13;fontColor=#000000;fontStyle=1;fontFamily=Times New Roman;" parent="1" vertex="1">
                    <mxGeometry x="476" y="51" width="113" height="20" as="geometry"/>
                </mxCell>
                <mxCell id="43" value="&lt;b style=&quot;font-size: 13px;&quot;&gt;Request for Login&lt;/b&gt;" style="text;html=1;align=center;verticalAlign=middle;resizable=0;points=[];autosize=1;strokeColor=none;fillColor=none;fontSize=13;fontColor=#000000;fontFamily=Times New Roman;" parent="1" vertex="1">
                    <mxGeometry x="477" y="61" width="110" height="20" as="geometry"/>
                </mxCell>
                <mxCell id="44" value="&lt;b style=&quot;font-size: 13px;&quot;&gt;Acknowledgement&lt;/b&gt;" style="text;html=1;align=center;verticalAlign=middle;resizable=0;points=[];autosize=1;strokeColor=none;fillColor=none;fontSize=13;fontColor=#000000;fontFamily=Times New Roman;" parent="1" vertex="1">
                    <mxGeometry x="477" y="72" width="113" height="20" as="geometry"/>
                </mxCell>
                <mxCell id="47" value="&lt;b style=&quot;font-size: 13px;&quot;&gt;Search Product&lt;/b&gt;" style="text;html=1;align=center;verticalAlign=middle;resizable=0;points=[];autosize=1;strokeColor=none;fillColor=none;fontSize=13;fontColor=#000000;fontFamily=Times New Roman;" parent="1" vertex="1">
                    <mxGeometry x="547" y="284" width="96" height="20" as="geometry"/>
                </mxCell>
                <mxCell id="48" value="&lt;b style=&quot;font-size: 13px;&quot;&gt;Acknowledgement&lt;/b&gt;" style="text;html=1;align=center;verticalAlign=middle;resizable=0;points=[];autosize=1;strokeColor=none;fillColor=none;fontSize=13;fontColor=#000000;fontFamily=Times New Roman;" parent="1" vertex="1">
                    <mxGeometry x="539" y="271" width="113" height="20" as="geometry"/>
                </mxCell>
                <mxCell id="51" value="&lt;b style=&quot;font-size: 13px;&quot;&gt;Acknowledgement&lt;/b&gt;" style="text;html=1;align=center;verticalAlign=middle;resizable=0;points=[];autosize=1;strokeColor=none;fillColor=none;fontSize=13;fontColor=#000000;fontFamily=Times New Roman;" parent="1" vertex="1">
                    <mxGeometry x="539" y="247" width="113" height="20" as="geometry"/>
                </mxCell>
                <mxCell id="52" value="&lt;b style=&quot;font-size: 13px;&quot;&gt;Manage Account&lt;/b&gt;" style="text;html=1;align=center;verticalAlign=middle;resizable=0;points=[];autosize=1;strokeColor=none;fillColor=none;fontSize=13;fontColor=#000000;fontFamily=Times New Roman;" parent="1" vertex="1">
                    <mxGeometry x="543" y="259" width="104" height="20" as="geometry"/>
                </mxCell>
                <mxCell id="55" value="&lt;b style=&quot;font-size: 13px;&quot;&gt;Make Order&lt;/b&gt;" style="text;html=1;align=center;verticalAlign=middle;resizable=0;points=[];autosize=1;strokeColor=none;fillColor=none;fontSize=13;fontColor=#000000;fontFamily=Times New Roman;" parent="1" vertex="1">
                    <mxGeometry x="553" y="237" width="80" height="20" as="geometry"/>
                </mxCell>
                <mxCell id="56" value="&lt;b style=&quot;font-size: 13px;&quot;&gt;Acknowledgement&lt;/b&gt;" style="text;html=1;align=center;verticalAlign=middle;resizable=0;points=[];autosize=1;strokeColor=none;fillColor=none;fontSize=13;fontColor=#000000;fontFamily=Times New Roman;" parent="1" vertex="1">
                    <mxGeometry x="541" y="226" width="113" height="20" as="geometry"/>
                </mxCell>
                <mxCell id="60" value="&lt;b style=&quot;font-size: 13px;&quot;&gt;Make Payment&lt;/b&gt;" style="text;html=1;align=center;verticalAlign=middle;resizable=0;points=[];autosize=1;strokeColor=none;fillColor=none;fontSize=13;fontColor=#000000;fontFamily=Times New Roman;" parent="1" vertex="1">
                    <mxGeometry x="546" y="216" width="94" height="20" as="geometry"/>
                </mxCell>
                <mxCell id="61" value="&lt;b style=&quot;font-size: 13px;&quot;&gt;Acknowledgement&lt;/b&gt;" style="text;html=1;align=center;verticalAlign=middle;resizable=0;points=[];autosize=1;strokeColor=none;fillColor=none;fontSize=13;fontColor=#000000;fontFamily=Times New Roman;" parent="1" vertex="1">
                    <mxGeometry x="536" y="206" width="113" height="20" as="geometry"/>
                </mxCell>
                <mxCell id="65" value="&lt;b style=&quot;font-size: 13px;&quot;&gt;Make Return&lt;/b&gt;" style="text;html=1;align=center;verticalAlign=middle;resizable=0;points=[];autosize=1;strokeColor=none;fillColor=none;fontSize=13;fontColor=#000000;fontFamily=Times New Roman;" parent="1" vertex="1">
                    <mxGeometry x="529" y="142" width="85" height="20" as="geometry"/>
                </mxCell>
                <mxCell id="66" value="&lt;b style=&quot;font-size: 13px;&quot;&gt;Acknowledgement&lt;/b&gt;" style="text;html=1;align=center;verticalAlign=middle;resizable=0;points=[];autosize=1;strokeColor=none;fillColor=none;fontSize=13;fontColor=#000000;fontFamily=Times New Roman;" parent="1" vertex="1">
                    <mxGeometry x="512" y="153" width="113" height="20" as="geometry"/>
                </mxCell>
                <mxCell id="69" value="&lt;b style=&quot;font-size: 13px;&quot;&gt;&lt;font style=&quot;font-size: 13px;&quot;&gt;Provides Supplies&lt;/font&gt;&lt;/b&gt;" style="text;html=1;align=center;verticalAlign=middle;resizable=0;points=[];autosize=1;strokeColor=none;fillColor=none;fontSize=13;fontColor=#000000;rotation=270;fontFamily=Times New Roman;" parent="1" vertex="1">
                    <mxGeometry x="346" y="472" width="108" height="20" as="geometry"/>
                </mxCell>
                <mxCell id="70" value="&lt;b style=&quot;font-size: 13px;&quot;&gt;Acknowledgement&lt;/b&gt;" style="text;html=1;align=center;verticalAlign=middle;resizable=0;points=[];autosize=1;strokeColor=none;fillColor=none;fontSize=13;fontColor=#000000;rotation=270;fontFamily=Times New Roman;" parent="1" vertex="1">
                    <mxGeometry x="363" y="472" width="113" height="20" as="geometry"/>
                </mxCell>
                <mxCell id="76" value="&lt;b style=&quot;font-size: 13px;&quot;&gt;Request for Payment&lt;/b&gt;" style="text;html=1;align=center;verticalAlign=middle;resizable=0;points=[];autosize=1;strokeColor=none;fillColor=none;fontSize=13;fontColor=#000000;fontFamily=Times New Roman;" parent="1" vertex="1">
                    <mxGeometry x="157" y="332" width="127" height="20" as="geometry"/>
                </mxCell>
                <mxCell id="77" value="&lt;b style=&quot;font-size: 13px;&quot;&gt;Acknowledgement&lt;/b&gt;" style="text;html=1;align=center;verticalAlign=middle;resizable=0;points=[];autosize=1;strokeColor=none;fillColor=none;fontSize=13;fontColor=#000000;fontFamily=Times New Roman;" parent="1" vertex="1">
                    <mxGeometry x="164" y="342" width="113" height="20" as="geometry"/>
                </mxCell>
                <mxCell id="82" value="&lt;b style=&quot;font-size: 13px;&quot;&gt;&lt;font color=&quot;#000000&quot; style=&quot;font-size: 13px;&quot;&gt;View Supplies&lt;/font&gt;&lt;/b&gt;" style="text;html=1;align=center;verticalAlign=middle;resizable=0;points=[];autosize=1;strokeColor=none;fillColor=none;fontFamily=Times New Roman;fontSize=13;" parent="1" vertex="1">
                    <mxGeometry x="556" y="330" width="88" height="20" as="geometry"/>
                </mxCell>
                <mxCell id="83" value="&lt;b style=&quot;font-size: 13px;&quot;&gt;Acknowledgement&lt;/b&gt;" style="text;html=1;align=center;verticalAlign=middle;resizable=0;points=[];autosize=1;strokeColor=none;fillColor=none;fontSize=13;fontColor=#000000;fontFamily=Times New Roman;" parent="1" vertex="1">
                    <mxGeometry x="544" y="343" width="113" height="20" as="geometry"/>
                </mxCell>
            </root>
        </mxGraphModel>
    </diagram>
</mxfile>